<?xml version="1.0" encoding="utf-8" standalone="no"?>
<!DOCTYPE svg PUBLIC "-//W3C//DTD SVG 1.1//EN"
  "http://www.w3.org/Graphics/SVG/1.1/DTD/svg11.dtd">
<!-- Created with matplotlib (https://matplotlib.org/) -->
<svg height="432pt" version="1.1" viewBox="0 0 1080 432" width="1080pt" xmlns="http://www.w3.org/2000/svg" xmlns:xlink="http://www.w3.org/1999/xlink">
 <metadata>
  <rdf:RDF xmlns:cc="http://creativecommons.org/ns#" xmlns:dc="http://purl.org/dc/elements/1.1/" xmlns:rdf="http://www.w3.org/1999/02/22-rdf-syntax-ns#">
   <cc:Work>
    <dc:type rdf:resource="http://purl.org/dc/dcmitype/StillImage"/>
    <dc:date>2022-03-31T11:48:51.304266</dc:date>
    <dc:format>image/svg+xml</dc:format>
    <dc:creator>
     <cc:Agent>
      <dc:title>Matplotlib v3.3.4, https://matplotlib.org/</dc:title>
     </cc:Agent>
    </dc:creator>
   </cc:Work>
  </rdf:RDF>
 </metadata>
 <defs>
  <style type="text/css">*{stroke-linecap:butt;stroke-linejoin:round;}</style>
 </defs>
 <g id="figure_1">
  <g id="patch_1">
   <path d="M 0 432 
L 1080 432 
L 1080 0 
L 0 0 
z
" style="fill:none;"/>
  </g>
  <g id="axes_1">
   <g id="patch_2">
    <path d="M 135 345.6 
L 972 345.6 
L 972 51.84 
L 135 51.84 
z
" style="fill:#ffffff;"/>
   </g>
   <g id="matplotlib.axis_1">
    <g id="xtick_1">
     <g id="line2d_1">
      <defs>
       <path d="M 0 0 
L 0 3.5 
" id="mf18cff479e" style="stroke:#000000;stroke-width:0.8;"/>
      </defs>
      <g>
       <use style="stroke:#000000;stroke-width:0.8;" x="161.658097" xlink:href="#mf18cff479e" y="345.6"/>
      </g>
     </g>
     <g id="text_1">
      <!-- 2015 -->
      <g transform="translate(138.577906 371.90544)rotate(-30)scale(0.1 -0.1)">
       <defs>
        <path d="M 19.1875 8.296875 
L 53.609375 8.296875 
L 53.609375 0 
L 7.328125 0 
L 7.328125 8.296875 
Q 12.9375 14.109375 22.625 23.890625 
Q 32.328125 33.6875 34.8125 36.53125 
Q 39.546875 41.84375 41.421875 45.53125 
Q 43.3125 49.21875 43.3125 52.78125 
Q 43.3125 58.59375 39.234375 62.25 
Q 35.15625 65.921875 28.609375 65.921875 
Q 23.96875 65.921875 18.8125 64.3125 
Q 13.671875 62.703125 7.8125 59.421875 
L 7.8125 69.390625 
Q 13.765625 71.78125 18.9375 73 
Q 24.125 74.21875 28.421875 74.21875 
Q 39.75 74.21875 46.484375 68.546875 
Q 53.21875 62.890625 53.21875 53.421875 
Q 53.21875 48.921875 51.53125 44.890625 
Q 49.859375 40.875 45.40625 35.40625 
Q 44.1875 33.984375 37.640625 27.21875 
Q 31.109375 20.453125 19.1875 8.296875 
z
" id="DejaVuSans-50"/>
        <path d="M 31.78125 66.40625 
Q 24.171875 66.40625 20.328125 58.90625 
Q 16.5 51.421875 16.5 36.375 
Q 16.5 21.390625 20.328125 13.890625 
Q 24.171875 6.390625 31.78125 6.390625 
Q 39.453125 6.390625 43.28125 13.890625 
Q 47.125 21.390625 47.125 36.375 
Q 47.125 51.421875 43.28125 58.90625 
Q 39.453125 66.40625 31.78125 66.40625 
z
M 31.78125 74.21875 
Q 44.046875 74.21875 50.515625 64.515625 
Q 56.984375 54.828125 56.984375 36.375 
Q 56.984375 17.96875 50.515625 8.265625 
Q 44.046875 -1.421875 31.78125 -1.421875 
Q 19.53125 -1.421875 13.0625 8.265625 
Q 6.59375 17.96875 6.59375 36.375 
Q 6.59375 54.828125 13.0625 64.515625 
Q 19.53125 74.21875 31.78125 74.21875 
z
" id="DejaVuSans-48"/>
        <path d="M 12.40625 8.296875 
L 28.515625 8.296875 
L 28.515625 63.921875 
L 10.984375 60.40625 
L 10.984375 69.390625 
L 28.421875 72.90625 
L 38.28125 72.90625 
L 38.28125 8.296875 
L 54.390625 8.296875 
L 54.390625 0 
L 12.40625 0 
z
" id="DejaVuSans-49"/>
        <path d="M 10.796875 72.90625 
L 49.515625 72.90625 
L 49.515625 64.59375 
L 19.828125 64.59375 
L 19.828125 46.734375 
Q 21.96875 47.46875 24.109375 47.828125 
Q 26.265625 48.1875 28.421875 48.1875 
Q 40.625 48.1875 47.75 41.5 
Q 54.890625 34.8125 54.890625 23.390625 
Q 54.890625 11.625 47.5625 5.09375 
Q 40.234375 -1.421875 26.90625 -1.421875 
Q 22.3125 -1.421875 17.546875 -0.640625 
Q 12.796875 0.140625 7.71875 1.703125 
L 7.71875 11.625 
Q 12.109375 9.234375 16.796875 8.0625 
Q 21.484375 6.890625 26.703125 6.890625 
Q 35.15625 6.890625 40.078125 11.328125 
Q 45.015625 15.765625 45.015625 23.390625 
Q 45.015625 31 40.078125 35.4375 
Q 35.15625 39.890625 26.703125 39.890625 
Q 22.75 39.890625 18.8125 39.015625 
Q 14.890625 38.140625 10.796875 36.28125 
z
" id="DejaVuSans-53"/>
       </defs>
       <use xlink:href="#DejaVuSans-50"/>
       <use x="63.623047" xlink:href="#DejaVuSans-48"/>
       <use x="127.246094" xlink:href="#DejaVuSans-49"/>
       <use x="190.869141" xlink:href="#DejaVuSans-53"/>
      </g>
     </g>
    </g>
    <g id="xtick_2">
     <g id="line2d_2">
      <g>
       <use style="stroke:#000000;stroke-width:0.8;" x="268.232087" xlink:href="#mf18cff479e" y="345.6"/>
      </g>
     </g>
     <g id="text_2">
      <!-- 2016 -->
      <g transform="translate(245.151897 371.90544)rotate(-30)scale(0.1 -0.1)">
       <defs>
        <path d="M 33.015625 40.375 
Q 26.375 40.375 22.484375 35.828125 
Q 18.609375 31.296875 18.609375 23.390625 
Q 18.609375 15.53125 22.484375 10.953125 
Q 26.375 6.390625 33.015625 6.390625 
Q 39.65625 6.390625 43.53125 10.953125 
Q 47.40625 15.53125 47.40625 23.390625 
Q 47.40625 31.296875 43.53125 35.828125 
Q 39.65625 40.375 33.015625 40.375 
z
M 52.59375 71.296875 
L 52.59375 62.3125 
Q 48.875 64.0625 45.09375 64.984375 
Q 41.3125 65.921875 37.59375 65.921875 
Q 27.828125 65.921875 22.671875 59.328125 
Q 17.53125 52.734375 16.796875 39.40625 
Q 19.671875 43.65625 24.015625 45.921875 
Q 28.375 48.1875 33.59375 48.1875 
Q 44.578125 48.1875 50.953125 41.515625 
Q 57.328125 34.859375 57.328125 23.390625 
Q 57.328125 12.15625 50.6875 5.359375 
Q 44.046875 -1.421875 33.015625 -1.421875 
Q 20.359375 -1.421875 13.671875 8.265625 
Q 6.984375 17.96875 6.984375 36.375 
Q 6.984375 53.65625 15.1875 63.9375 
Q 23.390625 74.21875 37.203125 74.21875 
Q 40.921875 74.21875 44.703125 73.484375 
Q 48.484375 72.75 52.59375 71.296875 
z
" id="DejaVuSans-54"/>
       </defs>
       <use xlink:href="#DejaVuSans-50"/>
       <use x="63.623047" xlink:href="#DejaVuSans-48"/>
       <use x="127.246094" xlink:href="#DejaVuSans-49"/>
       <use x="190.869141" xlink:href="#DejaVuSans-54"/>
      </g>
     </g>
    </g>
    <g id="xtick_3">
     <g id="line2d_3">
      <g>
       <use style="stroke:#000000;stroke-width:0.8;" x="375.09806" xlink:href="#mf18cff479e" y="345.6"/>
      </g>
     </g>
     <g id="text_3">
      <!-- 2017 -->
      <g transform="translate(352.01787 371.90544)rotate(-30)scale(0.1 -0.1)">
       <defs>
        <path d="M 8.203125 72.90625 
L 55.078125 72.90625 
L 55.078125 68.703125 
L 28.609375 0 
L 18.3125 0 
L 43.21875 64.59375 
L 8.203125 64.59375 
z
" id="DejaVuSans-55"/>
       </defs>
       <use xlink:href="#DejaVuSans-50"/>
       <use x="63.623047" xlink:href="#DejaVuSans-48"/>
       <use x="127.246094" xlink:href="#DejaVuSans-49"/>
       <use x="190.869141" xlink:href="#DejaVuSans-55"/>
      </g>
     </g>
    </g>
    <g id="xtick_4">
     <g id="line2d_4">
      <g>
       <use style="stroke:#000000;stroke-width:0.8;" x="481.672051" xlink:href="#mf18cff479e" y="345.6"/>
      </g>
     </g>
     <g id="text_4">
      <!-- 2018 -->
      <g transform="translate(458.59186 371.90544)rotate(-30)scale(0.1 -0.1)">
       <defs>
        <path d="M 31.78125 34.625 
Q 24.75 34.625 20.71875 30.859375 
Q 16.703125 27.09375 16.703125 20.515625 
Q 16.703125 13.921875 20.71875 10.15625 
Q 24.75 6.390625 31.78125 6.390625 
Q 38.8125 6.390625 42.859375 10.171875 
Q 46.921875 13.96875 46.921875 20.515625 
Q 46.921875 27.09375 42.890625 30.859375 
Q 38.875 34.625 31.78125 34.625 
z
M 21.921875 38.8125 
Q 15.578125 40.375 12.03125 44.71875 
Q 8.5 49.078125 8.5 55.328125 
Q 8.5 64.0625 14.71875 69.140625 
Q 20.953125 74.21875 31.78125 74.21875 
Q 42.671875 74.21875 48.875 69.140625 
Q 55.078125 64.0625 55.078125 55.328125 
Q 55.078125 49.078125 51.53125 44.71875 
Q 48 40.375 41.703125 38.8125 
Q 48.828125 37.15625 52.796875 32.3125 
Q 56.78125 27.484375 56.78125 20.515625 
Q 56.78125 9.90625 50.3125 4.234375 
Q 43.84375 -1.421875 31.78125 -1.421875 
Q 19.734375 -1.421875 13.25 4.234375 
Q 6.78125 9.90625 6.78125 20.515625 
Q 6.78125 27.484375 10.78125 32.3125 
Q 14.796875 37.15625 21.921875 38.8125 
z
M 18.3125 54.390625 
Q 18.3125 48.734375 21.84375 45.5625 
Q 25.390625 42.390625 31.78125 42.390625 
Q 38.140625 42.390625 41.71875 45.5625 
Q 45.3125 48.734375 45.3125 54.390625 
Q 45.3125 60.0625 41.71875 63.234375 
Q 38.140625 66.40625 31.78125 66.40625 
Q 25.390625 66.40625 21.84375 63.234375 
Q 18.3125 60.0625 18.3125 54.390625 
z
" id="DejaVuSans-56"/>
       </defs>
       <use xlink:href="#DejaVuSans-50"/>
       <use x="63.623047" xlink:href="#DejaVuSans-48"/>
       <use x="127.246094" xlink:href="#DejaVuSans-49"/>
       <use x="190.869141" xlink:href="#DejaVuSans-56"/>
      </g>
     </g>
    </g>
    <g id="xtick_5">
     <g id="line2d_5">
      <g>
       <use style="stroke:#000000;stroke-width:0.8;" x="588.246041" xlink:href="#mf18cff479e" y="345.6"/>
      </g>
     </g>
     <g id="text_5">
      <!-- 2019 -->
      <g transform="translate(565.16585 371.90544)rotate(-30)scale(0.1 -0.1)">
       <defs>
        <path d="M 10.984375 1.515625 
L 10.984375 10.5 
Q 14.703125 8.734375 18.5 7.8125 
Q 22.3125 6.890625 25.984375 6.890625 
Q 35.75 6.890625 40.890625 13.453125 
Q 46.046875 20.015625 46.78125 33.40625 
Q 43.953125 29.203125 39.59375 26.953125 
Q 35.25 24.703125 29.984375 24.703125 
Q 19.046875 24.703125 12.671875 31.3125 
Q 6.296875 37.9375 6.296875 49.421875 
Q 6.296875 60.640625 12.9375 67.421875 
Q 19.578125 74.21875 30.609375 74.21875 
Q 43.265625 74.21875 49.921875 64.515625 
Q 56.59375 54.828125 56.59375 36.375 
Q 56.59375 19.140625 48.40625 8.859375 
Q 40.234375 -1.421875 26.421875 -1.421875 
Q 22.703125 -1.421875 18.890625 -0.6875 
Q 15.09375 0.046875 10.984375 1.515625 
z
M 30.609375 32.421875 
Q 37.25 32.421875 41.125 36.953125 
Q 45.015625 41.5 45.015625 49.421875 
Q 45.015625 57.28125 41.125 61.84375 
Q 37.25 66.40625 30.609375 66.40625 
Q 23.96875 66.40625 20.09375 61.84375 
Q 16.21875 57.28125 16.21875 49.421875 
Q 16.21875 41.5 20.09375 36.953125 
Q 23.96875 32.421875 30.609375 32.421875 
z
" id="DejaVuSans-57"/>
       </defs>
       <use xlink:href="#DejaVuSans-50"/>
       <use x="63.623047" xlink:href="#DejaVuSans-48"/>
       <use x="127.246094" xlink:href="#DejaVuSans-49"/>
       <use x="190.869141" xlink:href="#DejaVuSans-57"/>
      </g>
     </g>
    </g>
    <g id="xtick_6">
     <g id="line2d_6">
      <g>
       <use style="stroke:#000000;stroke-width:0.8;" x="694.820031" xlink:href="#mf18cff479e" y="345.6"/>
      </g>
     </g>
     <g id="text_6">
      <!-- 2020 -->
      <g transform="translate(671.73984 371.90544)rotate(-30)scale(0.1 -0.1)">
       <use xlink:href="#DejaVuSans-50"/>
       <use x="63.623047" xlink:href="#DejaVuSans-48"/>
       <use x="127.246094" xlink:href="#DejaVuSans-50"/>
       <use x="190.869141" xlink:href="#DejaVuSans-48"/>
      </g>
     </g>
    </g>
    <g id="xtick_7">
     <g id="line2d_7">
      <g>
       <use style="stroke:#000000;stroke-width:0.8;" x="801.686004" xlink:href="#mf18cff479e" y="345.6"/>
      </g>
     </g>
     <g id="text_7">
      <!-- 2021 -->
      <g transform="translate(778.605814 371.90544)rotate(-30)scale(0.1 -0.1)">
       <use xlink:href="#DejaVuSans-50"/>
       <use x="63.623047" xlink:href="#DejaVuSans-48"/>
       <use x="127.246094" xlink:href="#DejaVuSans-50"/>
       <use x="190.869141" xlink:href="#DejaVuSans-49"/>
      </g>
     </g>
    </g>
    <g id="xtick_8">
     <g id="line2d_8">
      <g>
       <use style="stroke:#000000;stroke-width:0.8;" x="908.259994" xlink:href="#mf18cff479e" y="345.6"/>
      </g>
     </g>
     <g id="text_8">
      <!-- 2022 -->
      <g transform="translate(885.179804 371.90544)rotate(-30)scale(0.1 -0.1)">
       <use xlink:href="#DejaVuSans-50"/>
       <use x="63.623047" xlink:href="#DejaVuSans-48"/>
       <use x="127.246094" xlink:href="#DejaVuSans-50"/>
       <use x="190.869141" xlink:href="#DejaVuSans-50"/>
      </g>
     </g>
    </g>
    <g id="text_9">
     <!-- date -->
     <g transform="translate(542.225 385.30494)scale(0.1 -0.1)">
      <defs>
       <path d="M 45.40625 46.390625 
L 45.40625 75.984375 
L 54.390625 75.984375 
L 54.390625 0 
L 45.40625 0 
L 45.40625 8.203125 
Q 42.578125 3.328125 38.25 0.953125 
Q 33.9375 -1.421875 27.875 -1.421875 
Q 17.96875 -1.421875 11.734375 6.484375 
Q 5.515625 14.40625 5.515625 27.296875 
Q 5.515625 40.1875 11.734375 48.09375 
Q 17.96875 56 27.875 56 
Q 33.9375 56 38.25 53.625 
Q 42.578125 51.265625 45.40625 46.390625 
z
M 14.796875 27.296875 
Q 14.796875 17.390625 18.875 11.75 
Q 22.953125 6.109375 30.078125 6.109375 
Q 37.203125 6.109375 41.296875 11.75 
Q 45.40625 17.390625 45.40625 27.296875 
Q 45.40625 37.203125 41.296875 42.84375 
Q 37.203125 48.484375 30.078125 48.484375 
Q 22.953125 48.484375 18.875 42.84375 
Q 14.796875 37.203125 14.796875 27.296875 
z
" id="DejaVuSans-100"/>
       <path d="M 34.28125 27.484375 
Q 23.390625 27.484375 19.1875 25 
Q 14.984375 22.515625 14.984375 16.5 
Q 14.984375 11.71875 18.140625 8.90625 
Q 21.296875 6.109375 26.703125 6.109375 
Q 34.1875 6.109375 38.703125 11.40625 
Q 43.21875 16.703125 43.21875 25.484375 
L 43.21875 27.484375 
z
M 52.203125 31.203125 
L 52.203125 0 
L 43.21875 0 
L 43.21875 8.296875 
Q 40.140625 3.328125 35.546875 0.953125 
Q 30.953125 -1.421875 24.3125 -1.421875 
Q 15.921875 -1.421875 10.953125 3.296875 
Q 6 8.015625 6 15.921875 
Q 6 25.140625 12.171875 29.828125 
Q 18.359375 34.515625 30.609375 34.515625 
L 43.21875 34.515625 
L 43.21875 35.40625 
Q 43.21875 41.609375 39.140625 45 
Q 35.0625 48.390625 27.6875 48.390625 
Q 23 48.390625 18.546875 47.265625 
Q 14.109375 46.140625 10.015625 43.890625 
L 10.015625 52.203125 
Q 14.9375 54.109375 19.578125 55.046875 
Q 24.21875 56 28.609375 56 
Q 40.484375 56 46.34375 49.84375 
Q 52.203125 43.703125 52.203125 31.203125 
z
" id="DejaVuSans-97"/>
       <path d="M 18.3125 70.21875 
L 18.3125 54.6875 
L 36.8125 54.6875 
L 36.8125 47.703125 
L 18.3125 47.703125 
L 18.3125 18.015625 
Q 18.3125 11.328125 20.140625 9.421875 
Q 21.96875 7.515625 27.59375 7.515625 
L 36.8125 7.515625 
L 36.8125 0 
L 27.59375 0 
Q 17.1875 0 13.234375 3.875 
Q 9.28125 7.765625 9.28125 18.015625 
L 9.28125 47.703125 
L 2.6875 47.703125 
L 2.6875 54.6875 
L 9.28125 54.6875 
L 9.28125 70.21875 
z
" id="DejaVuSans-116"/>
       <path d="M 56.203125 29.59375 
L 56.203125 25.203125 
L 14.890625 25.203125 
Q 15.484375 15.921875 20.484375 11.0625 
Q 25.484375 6.203125 34.421875 6.203125 
Q 39.59375 6.203125 44.453125 7.46875 
Q 49.3125 8.734375 54.109375 11.28125 
L 54.109375 2.78125 
Q 49.265625 0.734375 44.1875 -0.34375 
Q 39.109375 -1.421875 33.890625 -1.421875 
Q 20.796875 -1.421875 13.15625 6.1875 
Q 5.515625 13.8125 5.515625 26.8125 
Q 5.515625 40.234375 12.765625 48.109375 
Q 20.015625 56 32.328125 56 
Q 43.359375 56 49.78125 48.890625 
Q 56.203125 41.796875 56.203125 29.59375 
z
M 47.21875 32.234375 
Q 47.125 39.59375 43.09375 43.984375 
Q 39.0625 48.390625 32.421875 48.390625 
Q 24.90625 48.390625 20.390625 44.140625 
Q 15.875 39.890625 15.1875 32.171875 
z
" id="DejaVuSans-101"/>
      </defs>
      <use xlink:href="#DejaVuSans-100"/>
      <use x="63.476562" xlink:href="#DejaVuSans-97"/>
      <use x="124.755859" xlink:href="#DejaVuSans-116"/>
      <use x="163.964844" xlink:href="#DejaVuSans-101"/>
     </g>
    </g>
   </g>
   <g id="matplotlib.axis_2">
    <g id="ytick_1">
     <g id="line2d_9">
      <defs>
       <path d="M 0 0 
L -3.5 0 
" id="m64a5bcfe66" style="stroke:#000000;stroke-width:0.8;"/>
      </defs>
      <g>
       <use style="stroke:#000000;stroke-width:0.8;" x="135" xlink:href="#m64a5bcfe66" y="334.756652"/>
      </g>
     </g>
     <g id="text_10">
      <!-- 0.1 -->
      <g transform="translate(112.096875 338.55587)scale(0.1 -0.1)">
       <defs>
        <path d="M 10.6875 12.40625 
L 21 12.40625 
L 21 0 
L 10.6875 0 
z
" id="DejaVuSans-46"/>
       </defs>
       <use xlink:href="#DejaVuSans-48"/>
       <use x="63.623047" xlink:href="#DejaVuSans-46"/>
       <use x="95.410156" xlink:href="#DejaVuSans-49"/>
      </g>
     </g>
    </g>
    <g id="ytick_2">
     <g id="line2d_10">
      <g>
       <use style="stroke:#000000;stroke-width:0.8;" x="135" xlink:href="#m64a5bcfe66" y="284.045338"/>
      </g>
     </g>
     <g id="text_11">
      <!-- 0.2 -->
      <g transform="translate(112.096875 287.844556)scale(0.1 -0.1)">
       <use xlink:href="#DejaVuSans-48"/>
       <use x="63.623047" xlink:href="#DejaVuSans-46"/>
       <use x="95.410156" xlink:href="#DejaVuSans-50"/>
      </g>
     </g>
    </g>
    <g id="ytick_3">
     <g id="line2d_11">
      <g>
       <use style="stroke:#000000;stroke-width:0.8;" x="135" xlink:href="#m64a5bcfe66" y="233.334024"/>
      </g>
     </g>
     <g id="text_12">
      <!-- 0.3 -->
      <g transform="translate(112.096875 237.133242)scale(0.1 -0.1)">
       <defs>
        <path d="M 40.578125 39.3125 
Q 47.65625 37.796875 51.625 33 
Q 55.609375 28.21875 55.609375 21.1875 
Q 55.609375 10.40625 48.1875 4.484375 
Q 40.765625 -1.421875 27.09375 -1.421875 
Q 22.515625 -1.421875 17.65625 -0.515625 
Q 12.796875 0.390625 7.625 2.203125 
L 7.625 11.71875 
Q 11.71875 9.328125 16.59375 8.109375 
Q 21.484375 6.890625 26.8125 6.890625 
Q 36.078125 6.890625 40.9375 10.546875 
Q 45.796875 14.203125 45.796875 21.1875 
Q 45.796875 27.640625 41.28125 31.265625 
Q 36.765625 34.90625 28.71875 34.90625 
L 20.21875 34.90625 
L 20.21875 43.015625 
L 29.109375 43.015625 
Q 36.375 43.015625 40.234375 45.921875 
Q 44.09375 48.828125 44.09375 54.296875 
Q 44.09375 59.90625 40.109375 62.90625 
Q 36.140625 65.921875 28.71875 65.921875 
Q 24.65625 65.921875 20.015625 65.03125 
Q 15.375 64.15625 9.8125 62.3125 
L 9.8125 71.09375 
Q 15.4375 72.65625 20.34375 73.4375 
Q 25.25 74.21875 29.59375 74.21875 
Q 40.828125 74.21875 47.359375 69.109375 
Q 53.90625 64.015625 53.90625 55.328125 
Q 53.90625 49.265625 50.4375 45.09375 
Q 46.96875 40.921875 40.578125 39.3125 
z
" id="DejaVuSans-51"/>
       </defs>
       <use xlink:href="#DejaVuSans-48"/>
       <use x="63.623047" xlink:href="#DejaVuSans-46"/>
       <use x="95.410156" xlink:href="#DejaVuSans-51"/>
      </g>
     </g>
    </g>
    <g id="ytick_4">
     <g id="line2d_12">
      <g>
       <use style="stroke:#000000;stroke-width:0.8;" x="135" xlink:href="#m64a5bcfe66" y="182.62271"/>
      </g>
     </g>
     <g id="text_13">
      <!-- 0.4 -->
      <g transform="translate(112.096875 186.421929)scale(0.1 -0.1)">
       <defs>
        <path d="M 37.796875 64.3125 
L 12.890625 25.390625 
L 37.796875 25.390625 
z
M 35.203125 72.90625 
L 47.609375 72.90625 
L 47.609375 25.390625 
L 58.015625 25.390625 
L 58.015625 17.1875 
L 47.609375 17.1875 
L 47.609375 0 
L 37.796875 0 
L 37.796875 17.1875 
L 4.890625 17.1875 
L 4.890625 26.703125 
z
" id="DejaVuSans-52"/>
       </defs>
       <use xlink:href="#DejaVuSans-48"/>
       <use x="63.623047" xlink:href="#DejaVuSans-46"/>
       <use x="95.410156" xlink:href="#DejaVuSans-52"/>
      </g>
     </g>
    </g>
    <g id="ytick_5">
     <g id="line2d_13">
      <g>
       <use style="stroke:#000000;stroke-width:0.8;" x="135" xlink:href="#m64a5bcfe66" y="131.911396"/>
      </g>
     </g>
     <g id="text_14">
      <!-- 0.5 -->
      <g transform="translate(112.096875 135.710615)scale(0.1 -0.1)">
       <use xlink:href="#DejaVuSans-48"/>
       <use x="63.623047" xlink:href="#DejaVuSans-46"/>
       <use x="95.410156" xlink:href="#DejaVuSans-53"/>
      </g>
     </g>
    </g>
    <g id="ytick_6">
     <g id="line2d_14">
      <g>
       <use style="stroke:#000000;stroke-width:0.8;" x="135" xlink:href="#m64a5bcfe66" y="81.200082"/>
      </g>
     </g>
     <g id="text_15">
      <!-- 0.6 -->
      <g transform="translate(112.096875 84.999301)scale(0.1 -0.1)">
       <use xlink:href="#DejaVuSans-48"/>
       <use x="63.623047" xlink:href="#DejaVuSans-46"/>
       <use x="95.410156" xlink:href="#DejaVuSans-54"/>
      </g>
     </g>
    </g>
   </g>
   <g id="line2d_15">
    <path clip-path="url(#p05886e5b86)" d="M 173.045455 212.621181 
L 173.337438 225.56933 
L 173.629422 244.087914 
L 173.921405 250.564068 
L 174.213389 266.314653 
L 175.089339 266.859079 
L 175.381323 267.316712 
L 177.717191 260.926108 
L 178.009175 262.801305 
L 178.301158 256.78299 
L 179.177109 252.779387 
L 179.469092 250.748029 
L 180.053059 257.089528 
L 180.345043 257.327742 
L 181.220994 257.286901 
L 181.512977 261.120776 
L 181.804961 262.323026 
L 182.096944 265.713158 
L 182.388928 266.638722 
L 183.264878 263.567334 
L 183.556862 264.804519 
L 183.848845 262.158554 
L 184.140829 261.41017 
L 184.432812 258.293978 
L 185.600747 247.755183 
L 185.89273 254.041914 
L 186.184714 254.302676 
L 186.476697 251.590286 
L 187.352648 250.623086 
L 188.228598 229.137137 
L 188.520582 227.498628 
L 189.688516 222.94201 
L 189.9805 212.482914 
L 190.272483 191.055216 
L 190.564467 201.844562 
L 191.440417 198.748417 
L 191.732401 196.726137 
L 192.024384 186.424897 
L 192.316368 197.804063 
L 192.608351 184.066829 
L 193.484302 171.795367 
L 193.776285 179.904668 
L 194.068269 178.433408 
L 194.360253 174.271302 
L 194.652236 180.224987 
L 195.528187 181.680839 
L 195.82017 176.207694 
L 196.404137 169.825231 
L 197.572071 178.763827 
L 197.864055 176.178039 
L 198.156039 181.657286 
L 198.448022 172.857903 
L 198.740006 180.928752 
L 199.615956 180.452928 
L 199.90794 176.608448 
L 200.199923 179.944667 
L 200.491907 181.938669 
L 200.78389 193.340714 
L 201.951824 205.014592 
L 202.243808 195.032649 
L 202.535792 200.795659 
L 202.827775 198.154444 
L 203.703726 186.504345 
L 204.287693 171.404641 
L 204.579676 169.354066 
L 204.87166 170.345017 
L 205.74761 166.757879 
L 206.039594 163.074686 
L 206.331577 161.141093 
L 206.623561 171.049183 
L 206.915545 164.104659 
L 207.791495 166.903865 
L 208.375462 152.45757 
L 208.667446 149.074112 
L 208.959429 150.259151 
L 209.83538 151.627077 
L 210.127363 155.401362 
L 210.419347 155.227592 
L 210.71133 161.526247 
L 211.003314 159.787854 
L 212.171248 142.829023 
L 212.463232 140.936329 
L 212.755215 143.778644 
L 213.047199 122.108055 
L 213.923149 82.835922 
L 214.215133 90.390605 
L 214.507116 92.093019 
L 214.7991 86.779675 
L 215.091084 84.646246 
L 215.967034 65.192727 
L 216.259018 91.348594 
L 216.551001 83.359506 
L 217.134968 99.135024 
L 218.010919 102.37034 
L 218.594886 130.636149 
L 218.886869 159.777952 
L 219.178853 169.420916 
L 220.054804 162.389977 
L 220.638771 183.135819 
L 220.930754 200.179849 
L 221.222738 201.592444 
L 222.098688 191.885217 
L 222.682655 163.681858 
L 222.974639 166.291447 
L 223.266622 165.856559 
L 224.142573 165.466044 
L 224.434557 175.62215 
L 224.72654 176.933886 
L 225.018524 171.145738 
L 225.310507 182.821446 
L 226.478441 191.516458 
L 226.770425 195.881395 
L 227.062408 194.518193 
L 227.354392 195.549665 
L 228.230343 185.1829 
L 228.81431 184.593096 
L 229.106293 189.570859 
L 229.398277 183.311484 
L 230.274227 142.80589 
L 230.566211 101.527444 
L 230.858194 99.700101 
L 231.150178 110.380082 
L 231.442161 114.406832 
L 232.318112 102.349099 
L 232.610096 79.195271 
L 232.902079 80.666818 
L 234.361997 103.187269 
L 234.65398 139.259291 
L 235.237947 171.410668 
L 235.529931 177.002266 
L 236.405882 143.538364 
L 236.697865 155.36602 
L 236.989849 171.812371 
L 237.573816 183.683632 
L 238.449766 177.779585 
L 238.74175 197.060831 
L 239.033733 189.806263 
L 239.325717 190.716882 
L 239.6177 198.559358 
L 240.493651 213.050382 
L 240.785635 210.824542 
L 241.077618 220.255949 
L 243.413486 214.412818 
L 243.70547 216.047182 
L 244.58142 217.231812 
L 245.165388 226.955021 
L 245.457371 228.046663 
L 245.749355 226.329496 
L 246.625305 222.69838 
L 246.917289 210.721025 
L 247.209272 204.265077 
L 247.501256 213.934394 
L 247.793239 217.566961 
L 248.66919 218.829086 
L 248.961174 224.459976 
L 249.545141 229.326231 
L 249.837124 234.051908 
L 250.713075 238.145001 
L 251.005058 236.433174 
L 251.297042 233.776281 
L 251.589025 232.380558 
L 251.881009 231.858758 
L 252.756959 212.657621 
L 253.048943 196.540651 
L 253.340927 205.664799 
L 253.924894 213.762955 
L 254.800844 208.464788 
L 255.092828 210.090867 
L 255.384811 210.818049 
L 255.676795 214.353314 
L 255.968778 225.576847 
L 256.844729 220.682436 
L 257.136712 224.787984 
L 257.428696 223.988621 
L 257.72068 234.702086 
L 258.012663 222.96804 
L 258.888614 219.181057 
L 259.180597 219.535107 
L 259.472581 222.99796 
L 259.764564 224.054948 
L 260.056548 222.210217 
L 260.932498 219.839421 
L 261.224482 214.189962 
L 261.516465 215.858531 
L 261.808449 214.047525 
L 262.100433 214.903498 
L 262.976383 212.960628 
L 263.268367 217.354812 
L 263.56035 218.60173 
L 263.852334 221.790483 
L 264.144317 230.279279 
L 265.020268 225.86424 
L 265.312251 231.982338 
L 265.604235 231.85966 
L 265.896219 237.202863 
L 266.188202 238.26315 
L 267.064153 235.482687 
L 267.356136 235.649906 
L 267.64812 235.49581 
L 267.940103 235.685169 
L 269.108037 205.541353 
L 269.400021 208.852465 
L 269.692004 210.859848 
L 269.983988 178.657002 
L 270.275972 188.453807 
L 271.151922 183.303902 
L 271.443906 184.824706 
L 271.735889 188.102993 
L 272.027873 184.493643 
L 272.319856 178.742983 
L 273.195807 185.645659 
L 273.48779 184.185608 
L 273.779774 180.494438 
L 274.071757 179.085441 
L 274.363741 187.685433 
L 275.239692 185.574109 
L 275.531675 175.429081 
L 275.823659 172.897715 
L 276.407626 186.856552 
L 277.283576 188.494153 
L 277.57556 199.102137 
L 277.867543 199.870934 
L 278.159527 204.401888 
L 278.451511 204.351312 
L 281.371346 193.437954 
L 281.663329 201.680244 
L 281.955313 204.142412 
L 282.247296 207.55393 
L 282.53928 219.028486 
L 283.415231 216.911798 
L 283.707214 217.87622 
L 283.999198 214.094849 
L 284.291181 208.816202 
L 284.583165 216.597276 
L 285.459115 209.140278 
L 285.751099 216.022441 
L 286.043082 215.349869 
L 286.627049 204.42612 
L 287.503 210.001656 
L 287.794984 205.803794 
L 288.086967 199.891704 
L 288.378951 215.206274 
L 288.670934 206.10391 
L 289.546885 213.245863 
L 289.838868 208.832475 
L 290.130852 197.164973 
L 290.422835 220.154346 
L 290.714819 227.441472 
L 291.59077 224.283542 
L 291.882753 229.709143 
L 292.174737 227.789528 
L 292.46672 229.107673 
L 292.758704 231.216347 
L 293.634654 231.314153 
L 293.926638 230.660965 
L 294.218621 232.369869 
L 294.510605 231.451474 
L 294.802588 231.046607 
L 295.970523 231.803222 
L 296.262506 231.757557 
L 296.846473 241.520967 
L 297.722424 245.735614 
L 298.598374 258.717481 
L 298.890358 256.660833 
L 299.766309 254.9757 
L 300.058292 258.097476 
L 300.350276 251.579614 
L 300.642259 262.257219 
L 300.934243 261.32805 
L 301.810193 259.853692 
L 302.102177 254.97738 
L 302.39416 257.217104 
L 302.978127 267.553793 
L 304.146062 271.902869 
L 304.438045 274.310244 
L 304.730029 273.333152 
L 305.022012 274.776511 
L 305.897963 262.872685 
L 306.189946 263.521872 
L 306.48193 266.940738 
L 306.773913 263.721186 
L 307.065897 267.541072 
L 307.941847 265.729501 
L 308.233831 266.552646 
L 308.525815 258.60943 
L 308.817798 263.997327 
L 309.109782 264.496416 
L 309.985732 270.013308 
L 310.277716 277.044551 
L 310.569699 273.575872 
L 310.861683 282.138917 
L 311.153666 283.643335 
L 312.029617 281.534739 
L 312.321601 274.195474 
L 312.613584 280.683836 
L 312.905568 278.98454 
L 313.197551 278.456561 
L 314.073502 280.782096 
L 314.365485 279.339279 
L 314.657469 276.551659 
L 316.117386 266.730758 
L 316.40937 266.966572 
L 316.701354 273.518862 
L 316.993337 275.887039 
L 317.285321 280.832269 
L 318.161271 280.239318 
L 318.453255 283.540861 
L 318.745238 284.131215 
L 319.037222 286.700323 
L 319.329205 286.557578 
L 320.205156 286.850164 
L 320.789123 288.682602 
L 321.081107 292.193656 
L 321.37309 291.340001 
L 322.249041 293.12546 
L 322.541024 291.484075 
L 322.833008 291.895201 
L 323.124991 286.63458 
L 323.416975 289.752419 
L 324.292925 288.392014 
L 324.584909 288.929195 
L 324.876892 287.6504 
L 325.168876 287.654589 
L 325.46086 288.225998 
L 326.33681 286.928307 
L 326.628794 286.14927 
L 326.920777 287.629407 
L 327.212761 287.564349 
L 327.504744 289.944126 
L 328.380695 289.664927 
L 328.672678 284.115607 
L 328.964662 284.705737 
L 329.256646 292.572093 
L 329.548629 295.969844 
L 330.42458 298.823734 
L 330.716563 299.168622 
L 331.008547 300.466348 
L 331.592514 301.773792 
L 332.468464 301.933948 
L 332.760448 301.642892 
L 333.052431 305.477109 
L 333.636399 295.412061 
L 334.512349 281.136628 
L 334.804333 287.101536 
L 335.096316 288.100365 
L 335.3883 289.880118 
L 336.556234 284.898911 
L 336.848217 284.018988 
L 337.432184 290.138974 
L 337.724168 291.852079 
L 338.600119 290.94949 
L 338.892102 288.021002 
L 339.184086 287.914706 
L 339.476069 287.595435 
L 339.768053 284.6097 
L 340.644003 286.672191 
L 340.935987 285.704994 
L 341.22797 286.373788 
L 341.519954 286.749663 
L 341.811937 286.732846 
L 342.687888 280.697076 
L 342.979872 287.879151 
L 343.271855 287.252179 
L 344.731773 285.876637 
L 345.31574 281.963868 
L 345.899707 292.606031 
L 346.775658 286.889916 
L 347.359625 292.621143 
L 347.651608 301.794328 
L 347.943592 300.168215 
L 350.863427 296.503723 
L 351.155411 299.368243 
L 351.447394 300.470027 
L 351.739378 299.869237 
L 352.031361 302.509569 
L 352.907312 300.039791 
L 353.199295 298.352146 
L 353.491279 298.408648 
L 353.783262 302.170837 
L 354.075246 299.033378 
L 354.951197 296.050903 
L 355.24318 300.849005 
L 355.535164 298.966069 
L 355.827147 300.852493 
L 356.119131 300.33359 
L 356.995081 299.411367 
L 357.287065 300.077224 
L 357.871032 293.548097 
L 358.163015 294.755466 
L 359.038966 289.934284 
L 359.33095 290.144894 
L 359.622933 287.995936 
L 359.914917 294.272162 
L 360.2069 294.261561 
L 361.082851 286.785943 
L 361.374834 289.258459 
L 361.666818 289.345742 
L 361.958801 291.294338 
L 362.250785 292.343621 
L 363.418719 275.864074 
L 364.002686 279.71353 
L 364.29467 283.926976 
L 365.17062 281.836971 
L 365.462604 298.785901 
L 365.754587 297.176884 
L 366.046571 296.492241 
L 366.338554 294.45843 
L 367.214505 293.601629 
L 367.798472 300.023369 
L 368.090456 302.368119 
L 368.382439 302.185684 
L 369.25839 300.389041 
L 369.842357 297.77043 
L 370.13434 288.723602 
L 370.426324 291.802857 
L 371.302274 284.902369 
L 371.594258 276.838872 
L 371.886242 285.970928 
L 372.178225 285.806105 
L 372.470209 281.390619 
L 373.346159 279.481893 
L 373.638143 276.55323 
L 373.930126 280.353367 
L 374.22211 288.605127 
L 374.514093 290.62253 
L 375.974011 299.373088 
L 376.265995 301.024258 
L 376.557978 300.56273 
L 377.433929 303.283586 
L 378.017896 303.883496 
L 378.601863 301.899574 
L 379.477813 292.905954 
L 379.769797 307.148802 
L 380.061781 306.576404 
L 380.353764 310.891482 
L 380.645748 312.337983 
L 381.521698 306.282195 
L 381.813682 308.237566 
L 382.105665 317.868351 
L 382.397649 320.666959 
L 384.733517 318.758472 
L 385.609468 319.113564 
L 385.901451 320.491302 
L 386.193435 320.29202 
L 386.485418 319.658981 
L 386.777402 318.188719 
L 387.653352 316.997433 
L 387.945336 320.264809 
L 388.237319 319.457197 
L 388.529303 320.241587 
L 388.821287 316.449454 
L 389.697237 310.588478 
L 389.989221 311.632296 
L 390.573188 318.465501 
L 390.865171 318.831085 
L 392.033105 317.212429 
L 392.325089 317.638762 
L 392.909056 314.684345 
L 393.785007 313.164518 
L 394.07699 311.495705 
L 394.368974 313.15597 
L 394.660957 308.721387 
L 394.952941 313.116752 
L 395.828891 311.301144 
L 396.120875 312.05237 
L 396.412858 305.836452 
L 396.704842 315.931443 
L 396.996826 309.10809 
L 397.872776 312.582398 
L 398.16476 309.713891 
L 398.456743 322.894279 
L 398.748727 326.551754 
L 399.04071 328.299648 
L 399.916661 326.839587 
L 400.208644 327.544048 
L 400.500628 328.607941 
L 400.792611 327.97984 
L 401.084595 327.908859 
L 402.544513 327.202584 
L 402.836496 328.161623 
L 403.12848 327.64955 
L 404.296414 328.565257 
L 404.588397 327.038898 
L 404.880381 329.377049 
L 405.172364 328.743634 
L 406.048315 327.178185 
L 406.340299 327.700743 
L 406.632282 320.092193 
L 406.924266 321.200823 
L 407.216249 321.044535 
L 408.0922 316.505373 
L 408.384183 321.790402 
L 408.676167 330.700898 
L 408.96815 328.6562 
L 409.260134 330.191648 
L 410.428068 331.979768 
L 410.720052 331.9675 
L 411.012035 330.838156 
L 411.304019 327.488649 
L 412.179969 327.54899 
L 412.471953 331.083394 
L 412.763936 331.227464 
L 413.05592 328.551591 
L 413.347903 323.763922 
L 414.223854 323.810454 
L 414.515838 323.654664 
L 414.807821 332.247273 
L 415.099805 331.890429 
L 415.391788 327.982057 
L 416.267739 314.193944 
L 416.559722 315.712384 
L 416.851706 326.28928 
L 417.143689 314.999951 
L 417.435673 320.664649 
L 418.895591 317.00146 
L 419.187574 314.288427 
L 419.479558 316.552336 
L 420.647492 316.159849 
L 421.231459 306.079681 
L 421.523442 301.533226 
L 422.399393 297.271375 
L 422.691377 298.978644 
L 423.567327 309.432812 
L 424.443278 303.519924 
L 424.735261 302.790853 
L 425.027245 304.434127 
L 425.319228 304.909626 
L 425.611212 301.241613 
L 426.487162 295.688122 
L 426.779146 299.088076 
L 427.07113 305.470001 
L 427.363113 307.475927 
L 428.531047 310.429245 
L 428.823031 312.93411 
L 429.115014 306.576178 
L 429.406998 308.199553 
L 429.698981 307.93708 
L 430.574932 305.206584 
L 430.866916 304.709857 
L 431.158899 301.192622 
L 431.450883 295.921577 
L 431.742866 295.484016 
L 432.618817 286.715334 
L 432.9108 291.799422 
L 433.202784 288.764477 
L 433.494767 289.814076 
L 433.786751 293.498089 
L 434.662701 289.54337 
L 435.246669 297.534166 
L 435.830636 301.67221 
L 436.706586 300.754789 
L 436.99857 300.049549 
L 437.290553 295.484986 
L 437.87452 301.556138 
L 438.750471 301.692409 
L 439.042454 302.867206 
L 439.626422 307.326785 
L 439.918405 304.343128 
L 440.794356 301.798895 
L 441.086339 303.612474 
L 441.378323 301.438343 
L 441.96229 305.333559 
L 442.83824 300.599716 
L 443.130224 302.008619 
L 443.714191 308.026674 
L 444.006175 302.325364 
L 444.882125 300.380897 
L 445.758076 296.518124 
L 446.050059 298.472435 
L 446.92601 295.687571 
L 447.217993 297.882714 
L 447.509977 295.250578 
L 447.801961 302.048502 
L 448.093944 297.414105 
L 448.969895 294.51149 
L 449.261878 295.596345 
L 449.553862 293.332986 
L 450.137829 303.122017 
L 451.013779 297.789964 
L 451.305763 302.612672 
L 451.597746 304.144617 
L 451.88973 302.792731 
L 452.181714 307.701798 
L 453.057664 303.46577 
L 453.933615 317.460329 
L 454.225598 316.248984 
L 457.437417 314.195166 
L 458.021384 316.463144 
L 458.313368 315.17624 
L 459.189318 311.844087 
L 459.481302 314.482718 
L 459.773285 315.313279 
L 460.065269 313.3906 
L 460.357252 316.66765 
L 461.233203 309.903859 
L 461.525187 301.442889 
L 461.81717 310.904997 
L 462.109154 313.921352 
L 462.401137 308.594517 
L 463.277088 309.750586 
L 463.569071 314.479297 
L 463.861055 315.07909 
L 464.153038 314.293838 
L 464.445022 314.345286 
L 465.320973 314.254212 
L 465.612956 310.900641 
L 465.90494 312.897497 
L 466.196923 310.712905 
L 466.488907 306.63908 
L 467.364857 304.651498 
L 467.656841 305.880602 
L 467.948824 304.544447 
L 468.240808 305.159984 
L 468.532791 296.565429 
L 469.700726 292.263413 
L 469.992709 293.563421 
L 470.284693 289.639453 
L 470.576676 291.100641 
L 471.452627 284.822945 
L 471.74461 293.247248 
L 472.036594 291.943667 
L 472.620561 283.024266 
L 473.788495 293.935403 
L 474.080479 290.516713 
L 474.664446 296.275254 
L 475.540396 298.243291 
L 475.83238 293.829094 
L 476.124363 293.677916 
L 476.416347 294.735009 
L 477.584281 296.830738 
L 477.876265 297.87598 
L 478.168248 297.674446 
L 478.752215 296.0091 
L 479.920149 292.630933 
L 480.212133 293.621087 
L 480.7961 301.218721 
L 481.964034 302.75749 
L 482.256018 304.766522 
L 482.548001 305.931059 
L 482.839985 306.412153 
L 483.715935 303.27524 
L 484.007919 305.789205 
L 484.299902 305.937249 
L 484.591886 302.550913 
L 484.883869 303.605225 
L 485.75982 295.160697 
L 486.051804 293.724986 
L 486.635771 279.970917 
L 486.927754 279.875731 
L 487.803705 280.133487 
L 488.387672 274.952805 
L 488.679655 280.404953 
L 488.971639 282.927139 
L 489.847589 288.021903 
L 490.139573 288.825288 
L 490.431557 289.29097 
L 490.72354 290.165327 
L 491.015524 283.497039 
L 491.891474 278.912423 
L 492.767425 262.032071 
L 493.059408 211.086847 
L 493.935359 242.859054 
L 494.227342 246.732532 
L 494.519326 247.666367 
L 496.855194 255.92869 
L 497.147178 266.667986 
L 498.023128 262.708597 
L 498.315112 259.74174 
L 498.607096 261.09323 
L 498.899079 267.16634 
L 499.191063 267.872893 
L 500.067013 271.687522 
L 500.358997 275.569911 
L 500.65098 272.631348 
L 501.234947 276.954875 
L 502.110898 272.608621 
L 502.402881 269.239112 
L 502.694865 271.236862 
L 502.986849 274.340496 
L 503.278832 272.098955 
L 504.154783 267.908435 
L 504.446766 269.744594 
L 504.73875 267.324663 
L 505.030733 268.115796 
L 505.322717 225.153038 
L 506.198667 240.058257 
L 506.490651 247.952819 
L 506.782634 242.975604 
L 507.074618 254.373191 
L 507.366602 252.139942 
L 508.242552 250.307861 
L 508.534536 251.270392 
L 508.826519 253.396431 
L 510.286437 250.349871 
L 510.57842 258.445674 
L 510.870404 256.951941 
L 512.330322 243.91142 
L 512.622305 244.641218 
L 512.914289 248.886664 
L 513.206272 255.459831 
L 513.498256 254.605035 
L 514.374206 254.464328 
L 514.66619 256.069602 
L 514.958173 263.322033 
L 517.002058 255.662407 
L 517.586025 256.230697 
L 518.461976 255.689805 
L 518.753959 258.952958 
L 519.045943 260.047141 
L 519.337926 268.982124 
L 519.62991 271.692802 
L 520.505861 275.036767 
L 520.797844 282.469368 
L 521.089828 277.279222 
L 521.381811 284.076878 
L 521.673795 283.954853 
L 522.549745 285.477273 
L 522.841729 287.699887 
L 523.133712 288.953463 
L 523.425696 291.276142 
L 523.717679 289.439841 
L 524.59363 290.800852 
L 524.885614 289.670014 
L 525.177597 278.198724 
L 525.469581 280.703137 
L 525.761564 279.155204 
L 526.637515 281.137527 
L 527.513465 286.903981 
L 527.805449 281.143395 
L 528.6814 276.625291 
L 528.973383 283.07899 
L 529.265367 280.339358 
L 529.55735 281.57731 
L 529.849334 279.401878 
L 531.017268 256.796788 
L 531.309251 269.566464 
L 531.601235 272.612246 
L 531.893218 273.973959 
L 532.769169 267.639157 
L 533.061153 263.50045 
L 533.353136 260.967052 
L 533.64512 261.468131 
L 533.937103 269.147909 
L 534.813054 246.516653 
L 535.105037 245.954944 
L 535.397021 244.878023 
L 535.689004 241.66585 
L 535.980988 248.479346 
L 536.856939 258.335797 
L 537.148922 259.333152 
L 537.440906 255.115047 
L 537.732889 258.510457 
L 538.024873 257.812727 
L 538.900823 258.094813 
L 539.48479 268.032361 
L 539.776774 269.351995 
L 540.068757 268.715081 
L 540.944708 265.105234 
L 541.236692 257.766372 
L 541.528675 262.264304 
L 541.820659 271.223751 
L 542.112642 274.570026 
L 542.988593 273.159329 
L 543.280576 274.835768 
L 543.57256 266.746368 
L 543.864543 262.421791 
L 544.156527 262.660917 
L 545.032477 257.589801 
L 545.324461 259.854737 
L 545.616445 257.860339 
L 546.200412 263.260051 
L 547.368346 259.066571 
L 547.660329 250.531163 
L 547.952313 251.098979 
L 548.244296 252.473392 
L 549.120247 251.561394 
L 549.412231 264.725202 
L 549.704214 265.295879 
L 549.996198 271.424305 
L 550.288181 271.427401 
L 551.164132 271.966752 
L 551.456115 271.664484 
L 551.748099 270.62598 
L 552.332066 267.225283 
L 553.208016 266.3516 
L 553.5 269.525448 
L 553.791984 262.877632 
L 554.083967 259.983427 
L 554.375951 261.377148 
L 555.251901 257.346019 
L 555.543885 259.413619 
L 555.835868 257.867726 
L 556.419835 268.740958 
L 557.295786 269.377104 
L 557.587769 271.201165 
L 557.879753 276.67289 
L 558.171737 279.154046 
L 558.46372 273.409057 
L 559.923638 274.430664 
L 560.215621 275.666234 
L 560.507605 272.422788 
L 563.42744 261.040803 
L 563.719424 263.936251 
L 564.011407 262.235072 
L 564.303391 244.338141 
L 564.595374 251.105951 
L 565.471325 244.477 
L 565.763308 245.245108 
L 566.055292 244.551857 
L 566.347276 235.361567 
L 566.639259 245.688877 
L 567.51521 244.042858 
L 567.807193 236.756 
L 568.099177 243.645845 
L 568.39116 243.317126 
L 568.683144 239.86972 
L 569.559094 232.312551 
L 569.851078 232.544231 
L 570.143061 233.597951 
L 570.727029 244.256049 
L 571.602979 237.874123 
L 571.894963 233.085379 
L 572.186946 231.101342 
L 572.47893 232.36631 
L 572.770913 228.368798 
L 573.646864 225.527819 
L 573.938847 229.685971 
L 574.230831 228.883884 
L 574.522814 234.216836 
L 574.814798 236.325086 
L 575.690749 238.910443 
L 575.982732 238.532127 
L 576.274716 239.895767 
L 576.566699 242.341273 
L 576.858683 242.885958 
L 577.734633 245.127884 
L 578.026617 246.256313 
L 578.610584 256.821506 
L 578.902568 254.895591 
L 580.070502 276.737236 
L 580.362485 276.507749 
L 580.654469 276.007401 
L 580.946452 279.574224 
L 581.822403 278.210167 
L 582.114386 278.133542 
L 582.40637 278.421211 
L 582.698353 281.401966 
L 582.990337 280.374934 
L 583.866288 275.738725 
L 584.158271 272.598982 
L 584.450255 273.674453 
L 585.034222 261.908619 
L 585.910172 267.242575 
L 586.202156 265.571395 
L 586.494139 270.289384 
L 586.786123 269.83942 
L 587.078106 269.904091 
L 588.538024 271.090879 
L 588.830008 273.193174 
L 589.121991 274.095491 
L 589.997942 273.136375 
L 590.873892 284.166223 
L 591.165876 283.818381 
L 592.041827 283.625901 
L 592.33381 285.352366 
L 592.625794 288.586693 
L 592.917777 287.440889 
L 593.209761 283.673704 
L 594.085711 281.511367 
L 594.377695 285.417591 
L 594.961662 296.758707 
L 595.253645 300.147364 
L 596.129596 295.618131 
L 596.713563 288.13759 
L 597.005547 289.27775 
L 597.29753 288.1393 
L 600.217366 289.440562 
L 600.509349 291.765333 
L 601.093316 274.499502 
L 601.3853 278.575323 
L 602.26125 273.291008 
L 602.553234 267.438403 
L 602.845217 265.656875 
L 603.137201 268.711584 
L 603.429184 270.313025 
L 604.305135 217.24605 
L 604.597119 231.872876 
L 604.889102 234.295217 
L 605.181086 243.65385 
L 605.473069 238.513604 
L 606.34902 233.306309 
L 606.641003 223.281555 
L 606.932987 220.609575 
L 607.22497 219.206221 
L 607.516954 217.131461 
L 608.392904 230.905405 
L 608.684888 230.561005 
L 608.976872 228.151773 
L 609.560839 237.180817 
L 610.436789 228.556233 
L 610.728773 227.169555 
L 611.020756 229.486075 
L 611.31274 226.447964 
L 611.604723 233.846647 
L 612.480674 238.462061 
L 612.772658 248.364479 
L 613.356625 259.694501 
L 613.648608 248.126476 
L 614.816542 236.83421 
L 615.400509 230.098354 
L 616.568443 219.720473 
L 616.860427 226.707395 
L 617.152411 228.628785 
L 617.444394 227.3518 
L 617.736378 235.441066 
L 618.612328 238.178284 
L 618.904312 232.892592 
L 619.196295 232.205668 
L 619.488279 233.663334 
L 619.780262 237.23383 
L 620.656213 235.417416 
L 620.948196 241.752812 
L 621.24018 243.811829 
L 621.532164 243.867643 
L 621.824147 248.687554 
L 622.700098 252.07396 
L 622.992081 252.757176 
L 624.743982 239.433702 
L 625.035966 250.318963 
L 625.327949 248.497316 
L 625.619933 242.916865 
L 625.911917 242.859644 
L 626.787867 245.590385 
L 627.079851 248.243716 
L 627.663818 259.792646 
L 627.955801 261.459414 
L 628.831752 262.730025 
L 629.123735 264.360264 
L 629.415719 272.878591 
L 629.707703 270.351351 
L 629.999686 270.316982 
L 630.875637 264.216342 
L 631.16762 269.218503 
L 631.459604 272.121358 
L 632.043571 268.142502 
L 632.919521 265.702673 
L 633.211505 263.422989 
L 633.503488 262.471089 
L 633.795472 260.453299 
L 634.963406 267.296266 
L 635.25539 270.67606 
L 635.547373 270.739772 
L 635.839357 268.829185 
L 636.13134 272.137803 
L 637.007291 271.250995 
L 637.299274 276.541859 
L 637.591258 277.04141 
L 638.175225 256.52103 
L 639.051176 257.688521 
L 639.343159 252.299919 
L 639.635143 255.495286 
L 639.927126 255.148357 
L 640.21911 252.302211 
L 641.09506 254.999759 
L 641.387044 256.366654 
L 641.971011 262.231154 
L 642.262994 260.076743 
L 643.138945 261.790622 
L 643.430929 266.947498 
L 643.722912 266.103433 
L 644.014896 265.804177 
L 644.306879 264.835341 
L 645.18283 263.561891 
L 645.474813 259.699875 
L 645.766797 261.543897 
L 646.05878 261.989036 
L 646.350764 261.392038 
L 647.226715 262.022755 
L 648.102665 283.831845 
L 648.394649 282.316341 
L 649.270599 280.557366 
L 649.562583 280.714717 
L 649.854566 279.307778 
L 650.14655 287.010231 
L 650.438533 283.533003 
L 651.314484 278.013325 
L 651.606468 270.092159 
L 651.898451 271.58993 
L 652.190435 267.9642 
L 652.482418 269.711776 
L 653.358369 267.189573 
L 653.650352 269.272735 
L 653.942336 273.970688 
L 654.234319 272.409787 
L 654.526303 269.076257 
L 655.402254 266.980913 
L 655.694237 268.840103 
L 655.986221 273.191476 
L 656.278204 274.532441 
L 656.570188 271.827463 
L 657.446138 269.533772 
L 657.738122 274.483641 
L 658.322089 279.841803 
L 658.614072 279.164947 
L 659.490023 280.754046 
L 659.782007 280.119724 
L 660.07399 280.533433 
L 660.365974 280.630409 
L 660.657957 279.526812 
L 661.533908 274.095514 
L 661.825891 275.193246 
L 662.117875 274.879011 
L 662.409858 275.525288 
L 663.577793 276.223957 
L 663.869776 278.240565 
L 664.453743 283.386487 
L 664.745727 283.224639 
L 665.621677 283.786591 
L 665.913661 287.11187 
L 666.205644 287.996702 
L 666.497628 289.73218 
L 667.665562 283.986125 
L 670.00143 289.59235 
L 670.293414 287.851051 
L 670.585397 288.949571 
L 670.877381 288.882573 
L 671.753331 289.299401 
L 672.045315 292.429767 
L 672.629282 290.450704 
L 672.921266 288.289758 
L 673.797216 290.50769 
L 674.0892 291.817688 
L 674.381183 290.584461 
L 674.673167 295.979833 
L 674.96515 298.518482 
L 675.841101 297.389228 
L 676.133084 298.800917 
L 676.425068 297.45716 
L 676.717052 295.294951 
L 677.009035 294.58435 
L 677.884986 294.367353 
L 678.176969 293.937911 
L 678.468953 293.994912 
L 679.05292 295.323574 
L 679.92887 292.806856 
L 680.220854 293.204653 
L 680.512838 292.753998 
L 680.804821 291.35631 
L 681.096805 291.273402 
L 681.972755 289.572167 
L 682.556722 295.364188 
L 682.848706 290.657402 
L 683.140689 291.651595 
L 684.01664 288.731544 
L 684.600607 288.876899 
L 684.892591 293.056741 
L 685.184574 290.615355 
L 686.060525 310.866299 
L 686.352508 311.245502 
L 686.644492 310.240537 
L 686.936475 310.784361 
L 687.228459 313.807133 
L 688.104409 311.914718 
L 688.396393 310.753758 
L 688.688376 312.472127 
L 688.98036 310.765526 
L 689.272344 306.061235 
L 690.148294 305.656929 
L 690.440278 303.895915 
L 691.024245 293.501564 
L 691.316228 299.962578 
L 692.192179 303.173871 
L 692.484162 306.400891 
L 692.776146 307.547701 
L 693.068129 306.829961 
L 693.360113 304.143096 
L 694.528047 299.296905 
L 695.112014 295.459106 
L 695.403998 296.588595 
L 696.279948 294.953009 
L 696.571932 292.338297 
L 696.863915 291.551083 
L 697.155899 292.592436 
L 697.447883 293.044786 
L 698.323833 292.082704 
L 698.615817 294.675791 
L 698.9078 294.616556 
L 699.199784 299.618118 
L 699.491767 298.439718 
L 700.367718 296.955498 
L 700.659701 294.21752 
L 700.951685 297.052515 
L 701.243668 291.344103 
L 704.455487 218.780253 
L 704.747471 266.788999 
L 705.039454 273.931195 
L 705.331438 277.223556 
L 705.623421 271.114771 
L 706.499372 271.699791 
L 706.791356 279.137914 
L 707.083339 281.567036 
L 707.375323 279.11332 
L 707.667306 281.537421 
L 708.543257 282.892491 
L 708.83524 281.577658 
L 709.127224 282.412504 
L 709.419207 279.64769 
L 709.711191 275.276374 
L 710.587142 264.98635 
L 711.171109 265.424536 
L 711.463092 277.324814 
L 711.755076 265.178259 
L 712.631026 274.544508 
L 712.92301 275.281902 
L 713.214993 274.781629 
L 713.506977 272.054394 
L 714.674911 247.01066 
L 714.966895 247.27405 
L 715.258878 245.927056 
L 715.550862 234.102992 
L 715.842845 207.69032 
L 716.718796 192.539497 
L 717.010779 193.867819 
L 717.302763 209.074585 
L 717.594746 207.071725 
L 717.88673 226.598638 
L 718.762681 205.476966 
L 719.346648 225.185671 
L 719.638631 227.9309 
L 719.930615 226.709869 
L 720.806565 226.51672 
L 721.390532 239.743611 
L 721.682516 244.378058 
L 721.974499 242.144181 
L 723.142434 251.15017 
L 723.726401 261.536563 
L 724.018384 263.000168 
L 724.894335 266.548835 
L 725.186318 266.00693 
L 725.770285 266.814806 
L 726.062269 263.403769 
L 726.938219 261.391158 
L 727.230203 260.244783 
L 727.81417 264.944424 
L 728.106154 271.927837 
L 728.982104 274.410148 
L 729.274088 276.085371 
L 729.566071 271.825528 
L 729.858055 271.02685 
L 731.609956 273.447431 
L 732.193923 278.772281 
L 733.069874 278.19124 
L 733.361857 276.113388 
L 733.653841 277.160086 
L 733.945824 275.233518 
L 734.237808 280.056101 
L 735.113758 281.593377 
L 735.405742 285.108138 
L 735.697726 284.825432 
L 735.989709 280.759564 
L 736.281693 270.778849 
L 737.157643 278.21832 
L 737.449627 274.410964 
L 737.74161 275.02639 
L 738.033594 277.016772 
L 738.325577 275.622995 
L 739.201528 278.081637 
L 739.493511 279.757293 
L 740.077479 278.260087 
L 740.369462 280.428439 
L 741.245413 276.814068 
L 741.537396 277.390513 
L 741.82938 277.510409 
L 742.121363 273.600649 
L 742.413347 272.447561 
L 743.289297 266.389179 
L 743.581281 278.155368 
L 743.873264 276.660049 
L 744.165248 279.573109 
L 744.457232 279.140782 
L 745.333182 274.976238 
L 745.625166 269.707378 
L 745.917149 277.75906 
L 747.377067 280.765084 
L 747.66905 283.689986 
L 747.961034 280.627309 
L 748.545001 263.135819 
L 749.420952 208.113075 
L 749.712935 226.956771 
L 750.296902 221.852465 
L 750.588886 226.243116 
L 751.464836 237.534489 
L 752.048803 236.220454 
L 752.340787 232.237028 
L 752.632771 244.917932 
L 753.508721 244.618689 
L 753.800705 250.524701 
L 754.092688 246.867007 
L 754.384672 250.121767 
L 754.676655 237.980993 
L 755.552606 241.760635 
L 755.844589 243.572362 
L 756.428556 241.167625 
L 756.72054 238.365476 
L 757.596491 234.842803 
L 757.888474 237.477101 
L 758.180458 237.403183 
L 758.472441 237.019395 
L 758.764425 237.964744 
L 759.640375 236.786496 
L 759.932359 240.909474 
L 760.224342 241.496797 
L 760.808309 246.644249 
L 761.68426 237.234777 
L 761.976244 241.069816 
L 762.268227 243.103135 
L 762.560211 243.513887 
L 762.852194 246.66483 
L 763.728145 246.796964 
L 764.020128 249.12971 
L 764.312112 246.31427 
L 764.604095 251.847543 
L 764.896079 251.181429 
L 765.77203 248.530118 
L 766.064013 250.619544 
L 766.355997 246.372697 
L 766.64798 244.39673 
L 766.939964 245.723542 
L 767.815914 239.495833 
L 768.107898 243.611056 
L 768.399881 239.862239 
L 768.691865 246.136402 
L 768.983848 248.418166 
L 769.859799 253.98645 
L 770.151783 254.043345 
L 770.443766 256.044767 
L 770.73575 256.505472 
L 771.027733 252.547601 
L 771.903684 254.285267 
L 772.195667 249.315402 
L 772.487651 251.614715 
L 772.779634 249.133431 
L 773.071618 248.752492 
L 774.239552 241.991719 
L 774.531536 241.217923 
L 777.159387 252.845212 
L 778.035338 248.52845 
L 778.327322 253.219403 
L 778.619305 254.309779 
L 778.911289 254.205682 
L 779.203272 254.536787 
L 780.079223 253.379079 
L 780.371206 256.572155 
L 780.66319 257.047288 
L 780.955173 257.00434 
L 781.247157 257.748018 
L 782.123108 253.950509 
L 782.415091 253.622352 
L 782.707075 257.360949 
L 782.999058 262.532481 
L 783.291042 257.535688 
L 784.166992 254.04764 
L 784.458976 254.547383 
L 784.750959 259.824928 
L 785.042943 262.162569 
L 785.334926 262.686308 
L 786.502861 259.616598 
L 786.794844 261.958366 
L 787.086828 262.536393 
L 787.378811 263.661746 
L 788.254762 262.481121 
L 788.546745 264.480039 
L 788.838729 263.860372 
L 789.130712 265.558556 
L 789.422696 265.721054 
L 790.298646 264.320685 
L 790.882614 265.12933 
L 791.174597 268.97329 
L 791.466581 268.42106 
L 792.342531 279.372772 
L 792.634515 271.719656 
L 792.926498 269.444789 
L 793.218482 268.93803 
L 793.510465 271.349564 
L 794.386416 275.2534 
L 794.970383 281.033051 
L 795.262367 283.125788 
L 795.55435 279.792722 
L 796.430301 282.475096 
L 796.722284 282.688656 
L 797.014268 284.31773 
L 797.306251 281.013168 
L 797.598235 284.157183 
L 798.474185 278.967615 
L 799.058153 282.806728 
L 799.350136 286.210391 
L 799.64212 286.805723 
L 800.51807 284.525069 
L 800.810054 282.827196 
L 801.102037 284.670616 
L 801.394021 281.234088 
L 802.561955 274.1629 
L 802.853938 279.348863 
L 803.145922 273.037318 
L 803.437906 261.315789 
L 803.729889 260.293353 
L 804.60584 266.205621 
L 804.897823 260.838399 
L 805.189807 260.000091 
L 805.48179 260.130939 
L 805.773774 266.933189 
L 806.649724 266.231962 
L 806.941708 267.215379 
L 807.233691 269.576129 
L 807.525675 262.969986 
L 807.817659 269.979042 
L 808.693609 263.366017 
L 808.985593 265.672123 
L 809.277576 269.161347 
L 809.861543 259.266458 
L 810.737494 261.677916 
L 811.029477 267.490784 
L 811.321461 270.349455 
L 811.613444 265.787798 
L 811.905428 264.594298 
L 812.781379 263.679189 
L 813.073362 265.133664 
L 813.365346 263.191694 
L 815.701214 263.292555 
L 815.993198 274.215446 
L 816.869148 267.460209 
L 817.161132 266.113562 
L 817.453115 262.152912 
L 817.745099 267.189222 
L 818.037082 257.325599 
L 818.913033 264.182262 
L 819.205016 262.860869 
L 819.497 265.179679 
L 819.788983 257.583641 
L 820.956918 245.721697 
L 821.248901 247.831635 
L 822.124852 263.451818 
L 823.000802 260.36441 
L 823.292786 264.494833 
L 823.584769 261.426785 
L 823.876753 263.946619 
L 824.168736 258.096552 
L 825.044687 259.135468 
L 825.628654 263.327551 
L 826.212621 271.565383 
L 827.088572 269.596213 
L 827.380555 266.924691 
L 827.672539 266.239254 
L 827.964522 273.132507 
L 828.256506 270.361212 
L 829.42444 266.865778 
L 830.008407 272.180082 
L 830.300391 268.635429 
L 831.176341 269.86336 
L 831.760308 273.265364 
L 832.052292 269.045038 
L 832.344275 272.832215 
L 833.220226 272.496318 
L 833.51221 273.379286 
L 834.096177 268.226621 
L 834.38816 268.043243 
L 835.264111 265.923198 
L 835.848078 268.319991 
L 836.140061 269.778859 
L 836.432045 274.46281 
L 838.183946 275.053152 
L 838.47593 275.839635 
L 839.35188 273.563232 
L 839.935847 276.891821 
L 840.227831 273.43568 
L 840.519814 273.395201 
L 841.395765 272.636346 
L 841.687749 273.354472 
L 841.979732 276.192223 
L 842.271716 275.132138 
L 842.563699 277.5385 
L 843.43965 273.218678 
L 843.731633 265.670543 
L 844.023617 270.591695 
L 844.3156 267.382816 
L 844.607584 267.288154 
L 845.483535 267.429898 
L 845.775518 267.284921 
L 846.067502 272.600449 
L 846.359485 274.278325 
L 846.651469 271.249618 
L 847.527419 270.76977 
L 847.819403 268.846616 
L 848.111386 271.724016 
L 848.40337 273.111943 
L 848.695353 273.109149 
L 849.863288 274.87325 
L 850.155271 269.347725 
L 850.447255 275.310962 
L 850.739238 274.799653 
L 851.615189 269.261516 
L 852.199156 284.723827 
L 852.491139 287.583423 
L 853.659073 284.888164 
L 853.951057 285.514495 
L 854.243041 285.558979 
L 854.535024 270.335484 
L 854.827008 278.387753 
L 855.702958 282.454999 
L 855.994942 281.335951 
L 856.286925 283.220665 
L 856.578909 282.014578 
L 856.870892 279.890432 
L 857.746843 281.598113 
L 858.038826 280.443257 
L 858.33081 280.807317 
L 858.622794 280.707576 
L 858.914777 281.797712 
L 859.790728 281.649368 
L 860.082711 278.793603 
L 860.374695 280.680583 
L 860.666678 281.24014 
L 860.958662 280.222091 
L 862.126596 256.36877 
L 862.41858 266.327027 
L 862.710563 271.902524 
L 863.002547 274.096771 
L 863.878497 269.486846 
L 864.170481 275.277462 
L 864.462464 267.944856 
L 864.754448 265.608354 
L 865.046431 268.912631 
L 865.922382 267.055988 
L 866.214365 267.969114 
L 866.506349 264.053978 
L 866.798333 270.780422 
L 867.090316 270.496422 
L 867.966267 267.279674 
L 868.25825 264.153096 
L 868.550234 268.783676 
L 868.842217 263.579435 
L 869.134201 262.325007 
L 870.010151 267.020978 
L 870.302135 266.3858 
L 870.594118 265.07977 
L 870.886102 271.825647 
L 871.178086 270.840339 
L 872.34602 268.3184 
L 872.638003 267.132271 
L 872.929987 270.00871 
L 873.22197 271.17442 
L 874.097921 270.486746 
L 874.389904 268.93882 
L 874.681888 268.840841 
L 874.973871 267.699857 
L 875.265855 269.303931 
L 876.141806 269.01809 
L 876.433789 267.767693 
L 876.725773 268.230606 
L 877.017756 267.574859 
L 877.30974 274.549406 
L 878.769657 268.52233 
L 879.061641 272.212566 
L 879.353625 274.27619 
L 880.229575 270.679273 
L 880.521559 273.211945 
L 880.813542 271.640783 
L 881.105526 272.020394 
L 884.317345 277.242357 
L 884.609328 275.81148 
L 884.901312 276.666621 
L 885.193295 274.81157 
L 885.485279 277.11233 
L 886.361229 270.423843 
L 886.653213 275.088206 
L 886.945196 274.966648 
L 887.23718 275.135832 
L 887.529163 273.611997 
L 888.405114 272.576843 
L 888.697098 272.741814 
L 888.989081 273.557771 
L 889.281065 276.647438 
L 889.573048 277.452758 
L 890.448999 277.165893 
L 890.740982 272.290088 
L 891.324949 277.701865 
L 891.616933 276.338207 
L 892.492884 274.62084 
L 892.784867 274.378937 
L 893.076851 275.650952 
L 893.660818 277.194834 
L 894.536768 273.743556 
L 894.828752 276.827055 
L 895.120735 276.01021 
L 895.412719 274.723154 
L 895.704702 279.666762 
L 896.580653 276.279452 
L 896.872637 277.049957 
L 897.16462 279.845101 
L 897.456604 284.618341 
L 897.748587 285.422062 
L 898.624538 294.77604 
L 898.916521 294.430289 
L 899.208505 294.7922 
L 899.500488 296.536371 
L 899.792472 299.014126 
L 900.668423 298.247326 
L 900.960406 296.221766 
L 901.544373 286.46879 
L 901.836357 289.907865 
L 902.712307 286.260391 
L 903.296274 289.688854 
L 903.588258 292.466787 
L 903.880241 287.91571 
L 904.756192 286.052614 
L 905.340159 291.594629 
L 905.632143 295.506016 
L 905.924126 294.026118 
L 906.800077 292.195667 
L 907.09206 287.827151 
L 907.384044 287.487585 
L 907.968011 288.582201 
L 909.135945 286.89733 
L 909.719912 285.304473 
L 910.011896 288.135514 
L 910.887846 285.193214 
L 911.17983 284.897898 
L 911.471813 285.857307 
L 911.763797 284.03716 
L 912.05578 284.588681 
L 912.931731 285.027726 
L 913.223715 287.503503 
L 913.807682 283.453714 
L 914.099665 283.496981 
L 914.975616 282.560243 
L 915.267599 276.420154 
L 915.559583 283.507514 
L 915.851566 281.722316 
L 916.14355 271.376353 
L 919.355369 285.590421 
L 919.647352 288.71347 
L 919.939336 288.959966 
L 920.231319 290.843285 
L 921.10727 286.752461 
L 921.399253 287.993406 
L 921.691237 290.046016 
L 921.983221 290.656791 
L 922.275204 290.753139 
L 923.151155 289.825477 
L 923.443138 288.287339 
L 923.735122 293.476659 
L 924.027105 289.486716 
L 924.319089 291.908517 
L 925.195039 289.001251 
L 925.487023 293.538042 
L 926.07099 292.417909 
L 926.362974 293.333963 
L 927.238924 279.510413 
L 927.530908 269.70367 
L 927.822891 264.535702 
L 928.114875 274.516203 
L 929.282809 253.644684 
L 929.574792 209.41343 
L 929.866776 249.686476 
L 930.15876 259.508546 
L 930.450743 262.905413 
L 931.326694 260.204582 
L 931.618677 264.625883 
L 931.910661 275.21991 
L 932.202644 280.885375 
L 932.494628 273.766225 
L 933.370578 270.992476 
L 933.662562 270.724613 
L 933.954545 274.599487 
L 933.954545 274.599487 
" style="fill:none;stroke:#1f77b4;stroke-linecap:square;stroke-width:1.5;"/>
   </g>
   <g id="patch_3">
    <path d="M 135 345.6 
L 135 51.84 
" style="fill:none;stroke:#000000;stroke-linecap:square;stroke-linejoin:miter;stroke-width:0.8;"/>
   </g>
   <g id="patch_4">
    <path d="M 972 345.6 
L 972 51.84 
" style="fill:none;stroke:#000000;stroke-linecap:square;stroke-linejoin:miter;stroke-width:0.8;"/>
   </g>
   <g id="patch_5">
    <path d="M 135 345.6 
L 972 345.6 
" style="fill:none;stroke:#000000;stroke-linecap:square;stroke-linejoin:miter;stroke-width:0.8;"/>
   </g>
   <g id="patch_6">
    <path d="M 135 51.84 
L 972 51.84 
" style="fill:none;stroke:#000000;stroke-linecap:square;stroke-linejoin:miter;stroke-width:0.8;"/>
   </g>
   <g id="legend_1">
    <g id="patch_7">
     <path d="M 923.209375 74.518125 
L 965 74.518125 
Q 967 74.518125 967 72.518125 
L 967 58.84 
Q 967 56.84 965 56.84 
L 923.209375 56.84 
Q 921.209375 56.84 921.209375 58.84 
L 921.209375 72.518125 
Q 921.209375 74.518125 923.209375 74.518125 
z
" style="fill:#ffffff;opacity:0.8;stroke:#cccccc;stroke-linejoin:miter;"/>
    </g>
    <g id="line2d_16">
     <path d="M 925.209375 64.938438 
L 945.209375 64.938438 
" style="fill:none;stroke:#1f77b4;stroke-linecap:square;stroke-width:1.5;"/>
    </g>
    <g id="line2d_17"/>
    <g id="text_16">
     <!-- IV -->
     <g transform="translate(953.209375 68.438438)scale(0.1 -0.1)">
      <defs>
       <path d="M 9.8125 72.90625 
L 19.671875 72.90625 
L 19.671875 0 
L 9.8125 0 
z
" id="DejaVuSans-73"/>
       <path d="M 28.609375 0 
L 0.78125 72.90625 
L 11.078125 72.90625 
L 34.1875 11.53125 
L 57.328125 72.90625 
L 67.578125 72.90625 
L 39.796875 0 
z
" id="DejaVuSans-86"/>
      </defs>
      <use xlink:href="#DejaVuSans-73"/>
      <use x="29.492188" xlink:href="#DejaVuSans-86"/>
     </g>
    </g>
   </g>
  </g>
 </g>
 <defs>
  <clipPath id="p05886e5b86">
   <rect height="293.76" width="837" x="135" y="51.84"/>
  </clipPath>
 </defs>
</svg>
